<?xml version="1.0" encoding="utf-8"?>
<!-- Generator: Adobe Illustrator 27.5.0, SVG Export Plug-In . SVG Version: 6.00 Build 0)  -->
<svg version="1.1" id="Capa_1" xmlns="http://www.w3.org/2000/svg" xmlns:xlink="http://www.w3.org/1999/xlink" x="0px" y="0px"
	 viewBox="0 0 425.2 425.2" style="enable-background:new 0 0 425.2 425.2;" xml:space="preserve">
<rect x="0.002" y="0.002" style="fill:#FFFFFF;" width="425.196" height="425.196"/>
<rect x="0.002" y="0.002" style="fill:#FFFFFF;" width="425.196" height="425.196"/>
<path style="fill:#999B9E;" d="M255.05,198.908c0,0,45.59-43.093,84.597-33.807c19.472,4.153,31.938-0.093,31.938-0.093
	l8.589,28.406c10.095-6.649,17.656,6.688,17.656,6.688c7.438,10.714-16.935,24.59-16.935,24.59L168.068,360.584
	c-26.001,18.921-52.338,5.933-52.338,5.933c-45.379-16.126-79.768-44.605-79.768-44.605c-25.777-20.197-1.822-19.993,0.305-33.657
	c4.504,25.943,67.935,41.63,67.935,41.63c19.258,9.729,32.851-3.48,32.851-3.48l54.97-48.094c0,0,10.996-8.48,13.132-13.577
	l33.056-46.301C238.209,218.434,245.988,204.194,255.05,198.908"/>
<g>
	<path style="fill:#FFFFFF;" d="M33.658,271.157c-0.813-6.744-0.552-13.097,0.052-18.397c-0.232-0.811-0.425-1.622-0.566-2.43
		c-0.918,5.899-1.569,13.746-0.553,22.173c2.959,5.64,7.587,11.245,12.983,16.551v-2.422
		C40.64,281.646,36.418,276.418,33.658,271.157z"/>
	<path style="fill:#C8161D;" d="M93.867,194.794c-18.333,21.775-55.109,68.172-55.109,68.172s-9.61-10.243-4.229-17.606
		L93.867,194.794z"/>
	<path style="fill:#D83633;" d="M201.28,256.607c13.809-13.505,16.927-25.441,24.745-42.982
		c7.929-17.792,18.023-22.186,18.023-22.186c62.594-49.979,90.231-39.441,90.231-39.441c19.473,4.154,46.957-15.081,46.957-15.081
		l-87.193-39.614c-8.358-3.608-13.316-1.598-13.316-1.598c-25.634,9.263-47.258-0.373-57.388,1.599
		c-55.257,10.754-85.67,44.957-85.67,44.957l-43.801,52.536l-53.58,49.15c-19.824,31.567,57.167,65.759,57.167,65.759
		c22.089,18.664,42.784-1.179,42.784-1.179L201.28,256.607z"/>
	<path style="fill:#C8161D;" d="M273.056,97.962c2.511-0.577,7.851-2.397,10.451-3.337c0,0,4.958-2.01,13.316,1.598l88.924,40.587
		c0,0-8.376,2.81-14.234,5.973L273.056,97.962z"/>
	<path style="fill:#7AD0E2;" d="M244.223,98.896c-8.971-1.067-15.942-3.953-20.634-2.884c-24.009,5.466-43.982,16.397-58.438,25.353
		c0.076,0.053,0.152,0.104,0.229,0.157c29.568,20.621,58.741,41.814,88.238,62.54c55.846-41.516,80.662-32.066,80.662-32.066
		c5.433,1.159,8.531,1.186,14.439-0.37L244.223,98.896z"/>
	<path style="fill:#C8161D;" d="M144.837,134.84c34.761,45.413,102.981,56.226,93.895,54.551c0,0,53.76-39.713,90.536-39.354
		L223.588,96.012C223.588,96.012,180.209,104.094,144.837,134.84z"/>
	<path style="fill:#D83633;" d="M251.218,178.921c0,0,45.59-43.093,84.597-33.807c19.472,4.153,44.938-6.419,44.938-6.419l0,0
		c12.066-2.064,12.063,38.338,12.063,38.338c0.484,18.022-15.752,27.672-15.752,27.672L164.236,340.598
		c-26.001,18.921-52.338,5.933-52.338,5.933c-45.379-16.126-73.072-47.221-73.072-47.221c-11.659-12.545-8.291-33.537-6.165-47.201
		c4.504,25.943,67.709,57.79,67.709,57.79c19.257,9.729,32.851-3.479,32.851-3.479l54.97-48.094c0,0,10.996-8.48,13.132-13.577
		l33.056-46.301C234.377,198.447,242.156,184.208,251.218,178.921"/>
	<path style="fill:#E6E7E8;" d="M382.061,140.156c0,0-8.296,3.44-19.035,5.624c2.629,0.776,5.145,1.99,6.71,4.116
		c2.747,3.732,1.349,8.495-1.476,11.76c-4.235,4.892-10.713,8.064-13.38,14.167c6.347-0.579,11.975-4.788,18.52-3.878
		c0.326,0.045,0.459,0.434,0.403,0.71c-1.254,6.176-4.742,11.52-9.21,15.882c-8.901,8.69-20.195,14.064-30.223,21.236
		c-14.772,10.567-28.432,22.589-42.779,33.706c-9.66,7.486-19.22,15.306-29.703,21.63c-9.288,5.603-20.927,11.615-32.091,8.767
		c-0.299-0.077-0.492-0.413-0.403-0.71c1.842-6.128,6.258-10.947,8.738-16.775c-9.13,0.541-17.658,3.957-25.374,8.784
		c-10.65,6.661-20.731,14.84-29.963,23.354c-3.266,3.011-6.553,6.064-10.17,8.654c-1.967,1.408-5.336,4.064-8.011,3.286
		c-2.907-0.846-2.502-4.778-2.212-7.086c0.579-4.603,2.154-9.148,4.081-13.458l-31.954,27.957c0,0-13.593,13.208-32.85,3.479
		c0,0-63.204-31.847-67.708-57.79c-2.126,13.664-5.495,34.655,6.165,47.201c0,0,27.693,31.094,73.072,47.221
		c0,0,26.337,12.988,52.338-5.934l212.827-135.892c0,0,16.236-9.649,15.752-27.672C394.124,178.494,394.128,138.091,382.061,140.156
		z"/>
	<path style="fill:#0B0D10;" d="M178.563,331.913c0,0-9.638-32.482,22.038-52.219c0,0,27.384-17.938,32.201,18.496L178.563,331.913z
		"/>
	<g>
		<g>
			<path style="fill:#373A3D;" d="M293.703,199.405l-88.972,55.503l36.522-56.844c0.537-0.833,15.52-22.745,38.328-33.258
				c0,0,26.655-15.721,45.084-14.633c15.514,0.916,24.417,7.699,24.768,8.026l2.785,2.6L293.703,199.405l-20.531-30.463"/>
		</g>
		<path style="fill:#7AD0E2;" d="M278.672,205.09v-35.255c-22.277,10.268-34.896,29.851-34.896,29.851l-29.278,45.569
			L278.672,205.09z"/>
		<path style="fill:#7AD0E2;" d="M285.469,166.882v34.361l61.917-40.851C347.386,160.393,326.005,140.436,285.469,166.882z"/>
		<path style="fill:#7AD0E2;" d="M269.777,199.453c-4.38,0.357-9.273,0.016-12.856-2.833c-2.417-1.921-3.851-4.531-4.613-7.415
			c-5.57,5.894-8.532,10.48-8.532,10.48l-29.278,45.569l64.173-40.166v-7.475C275.767,198.526,272.801,199.206,269.777,199.453z"/>
		<path style="fill:#7AD0E2;" d="M329.986,153.491c-1.784,4.003-4.082,7.725-5.929,10.476c-4.872,7.259-10.71,14.832-17.844,20.022
			c-5.294,3.851-11.516,6.937-17.457,9.639c-1.083,0.492-2.182,0.973-3.288,1.444v6.171l61.917-40.851
			C347.386,160.393,341.476,154.882,329.986,153.491z"/>
	</g>
	<g>
		<path style="fill:#E3482B;" d="M132.343,333.053c0,0-0.445,0.037-1.28,0.107c-0.835,0.054-2.06,0.167-3.616,0.244
			c-1.56-0.006-3.487,0.044-5.685-0.073c-1.096-0.079-2.261-0.164-3.49-0.253c-1.238-0.06-2.505-0.322-3.852-0.487
			c-0.671-0.097-1.356-0.196-2.054-0.297c-0.692-0.132-1.398-0.267-2.115-0.404c-1.438-0.27-2.921-0.579-4.422-0.98
			c-1.508-0.379-3.062-0.77-4.614-1.272c-1.562-0.476-3.16-0.969-4.747-1.568c-1.6-0.566-3.22-1.165-4.821-1.857
			c-0.807-0.335-1.618-0.671-2.434-1.009c-0.8-0.372-1.604-0.745-2.411-1.12c-3.242-1.476-6.421-3.2-9.565-4.973
			c-1.564-0.901-3.092-1.861-4.628-2.792c-1.507-0.976-3.015-1.94-4.469-2.954c-1.459-1.007-2.905-2.007-4.285-3.061
			c-1.4-1.026-2.761-2.069-4.072-3.128c-2.642-2.092-5.106-4.221-7.391-6.291c-2.281-2.076-4.363-4.116-6.233-6.045
			c-0.943-0.956-1.829-1.891-2.663-2.786c-0.814-0.914-1.586-1.782-2.312-2.597c-1.449-1.628-2.636-3.119-3.609-4.342
			c-1.94-2.458-2.918-3.961-2.918-3.961s1.355,1.155,3.728,3.177c2.384,1.997,5.796,4.817,9.949,8.092
			c2.077,1.637,4.363,3.359,6.775,5.175c2.419,1.807,4.99,3.677,7.683,5.556c2.683,1.892,5.507,3.764,8.39,5.636
			c1.434,0.949,2.933,1.817,4.392,2.761c1.492,0.887,2.979,1.797,4.494,2.658c3.018,1.736,6.071,3.413,9.132,4.942
			c0.765,0.384,1.526,0.767,2.285,1.148c0.767,0.361,1.53,0.72,2.288,1.077c1.509,0.737,3.034,1.379,4.526,2.033
			c1.483,0.683,2.987,1.23,4.44,1.826c1.447,0.618,2.906,1.088,4.311,1.609c1.398,0.543,2.793,0.955,4.134,1.393
			c0.671,0.221,1.331,0.438,1.979,0.651c0.656,0.183,1.3,0.362,1.93,0.538c2.521,0.733,4.868,1.265,6.955,1.771
			c2.103,0.421,3.937,0.788,5.446,1.09c1.544,0.21,2.755,0.427,3.582,0.552C131.902,332.978,132.343,333.053,132.343,333.053z"/>
	</g>
	<g>
		<path style="fill:#E3482B;" d="M130.829,338.446c0,0-0.445,0.037-1.28,0.107c-0.835,0.054-2.06,0.167-3.616,0.244
			c-1.56-0.006-3.488,0.043-5.685-0.073c-1.096-0.08-2.261-0.164-3.49-0.253c-1.238-0.061-2.505-0.322-3.851-0.488
			c-0.672-0.097-1.356-0.196-2.056-0.297c-0.691-0.132-1.397-0.267-2.114-0.404c-1.438-0.269-2.921-0.578-4.422-0.979
			c-1.508-0.38-3.062-0.77-4.613-1.273c-1.563-0.476-3.16-0.969-4.747-1.568c-1.6-0.566-3.22-1.165-4.822-1.857
			c-0.807-0.334-1.618-0.671-2.434-1.009c-0.8-0.372-1.604-0.745-2.411-1.12c-3.242-1.476-6.42-3.201-9.565-4.973
			c-1.563-0.901-3.092-1.861-4.628-2.793c-1.507-0.975-3.014-1.94-4.468-2.954c-1.46-1.007-2.906-2.007-4.286-3.061
			c-1.4-1.026-2.76-2.069-4.072-3.128c-2.642-2.092-5.105-4.222-7.391-6.291c-2.281-2.076-4.362-4.115-6.233-6.045
			c-0.943-0.956-1.829-1.891-2.663-2.786c-0.814-0.915-1.585-1.782-2.311-2.597c-1.449-1.628-2.636-3.119-3.61-4.342
			c-1.939-2.458-2.918-3.961-2.918-3.961s1.356,1.155,3.729,3.177c2.384,1.997,5.796,4.817,9.949,8.092
			c2.077,1.637,4.362,3.36,6.774,5.175c2.419,1.807,4.99,3.677,7.683,5.556c2.684,1.892,5.508,3.764,8.39,5.636
			c1.434,0.949,2.933,1.816,4.392,2.761c1.493,0.886,2.98,1.796,4.494,2.657c3.018,1.736,6.07,3.413,9.132,4.942
			c0.765,0.385,1.526,0.768,2.285,1.148c0.767,0.361,1.53,0.72,2.289,1.077c1.509,0.737,3.033,1.379,4.526,2.033
			c1.483,0.684,2.987,1.23,4.44,1.826c1.447,0.617,2.906,1.087,4.311,1.608c1.399,0.543,2.793,0.954,4.134,1.392
			c0.671,0.221,1.331,0.438,1.979,0.651c0.656,0.183,1.3,0.362,1.93,0.538c2.521,0.733,4.868,1.265,6.956,1.771
			c2.103,0.421,3.937,0.788,5.446,1.09c1.545,0.21,2.755,0.427,3.582,0.552C130.389,338.371,130.829,338.446,130.829,338.446z"/>
	</g>
	<path style="fill:#BCBEC0;" d="M140.689,319.231l-3.733,2.637c0,0-14.631,14.217-35.357,3.745c0,0-55.803-27.942-69.007-53.111
		c-1.016-8.427-0.365-16.274,0.553-22.173c4.505,25.943,67.709,57.79,67.709,57.79c19.257,9.729,32.851-3.48,32.851-3.48
		l6.986-4.934C140.689,299.706,150.884,300.088,140.689,319.231z"/>
	<path style="fill:#FFFFFF;" d="M45.574,271.302c-6.387-6.765-11.211-13.959-12.43-20.973c-0.918,5.899-1.569,13.746-0.553,22.173
		c2.959,5.64,7.587,11.245,12.983,16.551V271.302z"/>
	<path style="fill:#FFFFFF;" d="M140.643,299.653l-6.971,4.954c0,0-13.554,13.25-32.84,3.579c0,0-0.076-0.04-0.188-0.1l0.052,17.09
		c0.597,0.323,0.935,0.501,0.935,0.501c20.758,10.41,35.346-3.852,35.346-3.852l3.726-2.648
		C150.84,300.004,140.643,299.653,140.643,299.653z"/>
	<path style="fill:#8F0507;" d="M143.138,300.621c1.197,2.534,1.107,7.402-3.851,16.779l-3.726,2.648
		c0,0-14.366,14.028-34.869,4.076l0.004,1.052c0.597,0.323,0.935,0.501,0.935,0.501c20.758,10.41,35.346-3.852,35.346-3.852
		l3.726-2.648C147.236,306.82,145.323,302.286,143.138,300.621z"/>
	<path style="fill:#A7A9AC;" d="M50.104,275.797v17.488c11.813,10.526,35.252,22.902,43.763,27.942v-17.066
		C85.442,299.183,61.585,286.54,50.104,275.797z"/>
	<line style="fill:none;stroke:#BCBEC0;stroke-miterlimit:10;" x1="282.447" y1="156.502" x2="282.447" y2="259.192"/>
	<polygon style="fill:#383B3E;" points="260.522,224.338 273.172,216.104 273.172,221.622 260.522,230.458 	"/>
	<polygon style="fill:#383B3E;" points="331.498,179.553 344.147,171.318 344.147,176.836 331.498,185.672 	"/>
	<g>
		<path style="fill:#383B3E;" d="M51.804,281.185c0,0,26.679,19.257,39.067,25.22v1.715c0,0-25.474-12.571-39.067-25.417V281.185z"
			/>
		<path style="fill:#383B3E;" d="M51.804,284.047c0,0,26.679,19.257,39.067,25.22v1.714c0,0-25.474-12.571-39.067-25.417V284.047z"
			/>
		<path style="fill:#383B3E;" d="M51.804,286.909c0,0,26.679,19.257,39.067,25.22v1.714c0,0-25.474-12.571-39.067-25.417V286.909z"
			/>
		<path style="fill:#383B3E;" d="M51.804,289.772c0,0,26.679,19.257,39.067,25.22v1.714c0,0-25.474-12.571-39.067-25.416V289.772z"
			/>
	</g>
	<path style="fill:#8F0507;" d="M33.658,271.157c-0.813-6.744-0.552-13.097,0.052-18.397c-0.232-0.811-0.425-1.622-0.566-2.43
		c-0.918,5.899-1.569,13.746-0.553,22.173c2.959,5.64,7.587,11.245,12.983,16.551v-2.422
		C40.64,281.646,36.418,276.418,33.658,271.157z"/>
	<path style="fill:#C8161D;" d="M93.867,194.794l-39.798,38.964c0,0-19.257,17.421,0,35.327l46.623,27.281
		c0,0,16.502,9.912,30.137,0l66.333-46.038L93.867,194.794z"/>
	<path style="fill:#7AD0E2;" d="M137.668,141.459c0,0,26.054,36.438,94.511,55.754l-35.016,53.116c0,0-79.607-7.498-103.295-55.535
		L137.668,141.459z"/>
	<path style="fill:#7AD0E2;" d="M194.092,225.648c-12.779,0.995-26.43-0.493-38.615-4.507c-12.19-4.016-23.914-11.134-30.221-22.703
		c-6.58-12.068-7.025-27.196-2.228-40.206l-29.162,36.563c23.688,48.037,103.295,55.535,103.295,55.535l21.326-32.35
		C211.2,222.606,202.732,224.974,194.092,225.648z"/>
	<g>
		<g>
			<path style="fill:#E3482B;" d="M33.144,250.329c1.09,4.628,3.512,8.787,6.342,12.526c2.854,3.743,6.134,7.141,9.613,10.308
				c3.483,3.167,7.17,6.104,10.961,8.897c3.785,2.801,7.684,5.452,11.654,7.988c7.947,5.064,16.176,9.692,24.552,13.99
				c2.098,1.061,4.204,2.128,6.321,3.081l0.806,0.364l0.77,0.299c0.507,0.206,1.023,0.401,1.565,0.568
				c0.531,0.182,1.064,0.356,1.608,0.49c0.539,0.153,1.08,0.294,1.628,0.398c2.181,0.468,4.403,0.676,6.611,0.603
				c2.206-0.098,4.398-0.445,6.511-1.085c2.115-0.622,4.156-1.512,6.065-2.622c0.953-0.555,1.873-1.169,2.737-1.831
				c0.431-0.329,0.855-0.677,1.227-1.016c0.515-0.475,0.913-0.799,1.375-1.207l10.73-9.302l21.489-18.571l10.765-9.261l5.383-4.63
				l2.691-2.315l1.346-1.158l0.54-0.466l0.622-0.614c3.33-3.31,6.618-6.684,9.792-10.119c1.58-1.722,3.146-3.451,4.628-5.208
				c0.737-0.878,1.456-1.764,2.117-2.646c0.645-0.855,1.289-1.831,1.551-2.422l0.124-0.28l0.141-0.207l13.551-19.912
				c4.523-6.633,9.016-13.288,13.581-19.892l-0.189,0.319c1.714-3.254,3.527-6.251,5.538-9.235c2.007-2.963,4.173-5.841,6.616-8.551
				c1.216-1.358,2.528-2.656,3.916-3.9c0.335-0.319,0.724-0.601,1.083-0.902l0.964-0.777c0.721-0.609,1.397-1.152,2.1-1.71
				c2.789-2.202,5.642-4.281,8.553-6.281c5.822-3.996,11.884-7.646,18.201-10.841c6.313-3.197,12.87-5.967,19.682-8.066
				c6.803-2.096,13.884-3.514,21.093-3.793c3.6-0.146,7.227,0.042,10.814,0.544c1.794,0.253,3.574,0.611,5.339,1.032
				c0.618,0.109,1.697,0.365,2.401,0.439l1.18,0.168l1.23,0.119c3.289,0.3,6.653,0.182,10.005-0.148
				c3.353-0.356,6.704-0.937,10.022-1.712c3.317-0.771,6.61-1.702,9.861-2.77c3.237-1.07,6.494-2.278,9.56-3.633l0.231-0.103
				l0.163-0.029c1.201-0.215,2.588-0.102,3.729,0.453c1.151,0.535,2.035,1.35,2.714,2.199c1.358,1.718,2.135,3.577,2.768,5.427
				c1.209,3.719,1.796,7.475,2.233,11.224c0.435,3.75,0.597,7.508,0.681,11.255c0.081,3.748-0.016,7.496-0.21,11.229
				c-0.167-3.735-0.513-7.456-0.885-11.161c-0.38-3.706-0.908-7.391-1.563-11.03c-0.678-3.626-1.522-7.244-2.864-10.553
				c-0.674-1.634-1.477-3.227-2.521-4.385c-0.515-0.581-1.089-1.008-1.653-1.225c-0.564-0.229-1.129-0.229-1.754-0.095l0.394-0.131
				c-3.251,1.547-6.488,2.845-9.817,4.053c-3.32,1.196-6.695,2.259-10.135,3.12c-3.435,0.876-6.933,1.558-10.484,2.007
				c-3.554,0.422-7.167,0.627-10.811,0.372l-1.366-0.105l-1.404-0.171l-0.703-0.09l-0.642-0.112l-1.389-0.25
				c-1.624-0.351-3.261-0.646-4.914-0.845c-3.305-0.396-6.652-0.493-9.995-0.304c-6.691,0.341-13.346,1.749-19.793,3.824
				c-6.454,2.077-12.718,4.81-18.767,7.968c-6.042,3.174-11.897,6.738-17.526,10.625c-2.809,1.947-5.569,3.977-8.227,6.094
				c-0.657,0.525-1.333,1.074-1.938,1.589l-1.061,0.865c-0.304,0.258-0.625,0.484-0.917,0.768c-1.195,1.082-2.355,2.232-3.452,3.468
				c-2.204,2.462-4.222,5.156-6.102,7.953c-1.866,2.784-3.64,5.756-5.154,8.657l-0.092,0.176l-0.097,0.143
				c-4.501,6.647-9.077,13.245-13.62,19.864l-13.65,19.845l0.265-0.486c-0.72,1.567-1.464,2.53-2.224,3.574
				c-0.761,1.01-1.539,1.958-2.326,2.891c-1.576,1.857-3.191,3.634-4.834,5.378c-3.287,3.485-6.642,6.858-10.061,10.188
				l-0.647,0.626l-0.209,0.193l-0.085,0.071l-0.17,0.143l-0.34,0.285l-1.359,1.142l-2.718,2.283l-5.438,4.566l-10.873,9.133
				l-21.79,18.216l-10.91,9.091c-0.433,0.366-0.957,0.785-1.315,1.108c-0.512,0.448-1.013,0.838-1.53,1.218
				c-1.03,0.756-2.099,1.436-3.203,2.049c-2.208,1.226-4.558,2.193-6.997,2.858c-2.437,0.675-4.969,0.997-7.491,1.037
				c-2.525,0.014-5.042-0.297-7.472-0.89c-0.611-0.136-1.211-0.31-1.807-0.497c-0.601-0.168-1.188-0.377-1.77-0.594
				c-0.584-0.2-1.168-0.438-1.751-0.694l-0.873-0.373l-0.801-0.39c-2.172-1.052-4.264-2.174-6.361-3.305
				c-8.369-4.535-16.503-9.48-24.356-14.85c-7.839-5.377-15.426-11.187-22.23-17.862c-3.388-3.341-6.594-6.898-9.29-10.831
				C36.259,259.332,34.013,255.006,33.144,250.329z"/>
		</g>
	</g>
	<path style="fill:#0B0D10;" d="M215.919,327.605c-6.686,16.916-16.461,20.691-27.567,16.302
		c-11.106-4.39-14.688-21.661-8.003-38.575c6.686-16.916,21.108-27.069,32.214-22.679
		C223.669,287.042,222.605,310.69,215.919,327.605z"/>
	<path style="fill:#373A3D;" d="M226.951,321.271c-6.723,16.901-21.166,27.023-32.263,22.61
		c-11.097-4.414-14.641-21.692-7.92-38.593c6.723-16.901,21.167-27.023,32.263-22.608
		C230.128,287.092,233.674,304.371,226.951,321.271z"/>
	<g>
		<path style="fill:#0B0D10;" d="M222.359,318.548c-4.431,12.182-14.507,19.701-22.507,16.792c-8-2.908-10.894-15.145-6.462-27.327
			c4.432-12.186,14.507-19.704,22.507-16.794C223.895,294.128,226.79,306.363,222.359,318.548z"/>
		<path style="fill:#D1D3D4;" d="M221.427,315.944c-3.917,10.771-12.825,17.416-19.896,14.845
			c-7.073-2.571-9.63-13.388-5.712-24.158c3.917-10.771,12.825-17.418,19.896-14.845
			C222.786,294.358,225.344,305.173,221.427,315.944z"/>
		<path style="fill:#D1D3D4;" d="M221.427,315.944c-3.917,10.771-12.825,17.416-19.896,14.845
			c-7.073-2.571-9.63-13.388-5.712-24.158c3.917-10.771,12.825-17.418,19.896-14.845
			C222.786,294.358,225.344,305.173,221.427,315.944z"/>
		<path style="fill:#808285;" d="M216.809,313.778c-2.62,7.204-8.323,11.741-12.734,10.137c-4.415-1.606-5.869-8.748-3.25-15.948
			c2.619-7.204,8.32-11.742,12.736-10.137C217.975,299.436,219.428,306.576,216.809,313.778z"/>
		<g>
			<path style="fill:#D1D3D4;" d="M209.592,295.114c0.023,0.8-0.607,1.468-1.406,1.492c-0.801,0.024-1.47-0.605-1.493-1.405
				c-0.025-0.8,0.606-1.469,1.407-1.492C208.898,293.685,209.568,294.315,209.592,295.114z"/>
			<path style="fill:#FFFFFF;" d="M208.392,295.21c0.284,0.246,0.617,0.301,0.895,0.181c0.063-0.143,0.094-0.301,0.089-0.465
				c-0.017-0.59-0.5-1.059-1.086-1.061C208.006,294.274,207.984,294.858,208.392,295.21z"/>
			<path style="fill:#BCBEC0;" d="M208.09,295.556c-0.468-0.528-0.5-1.259-0.174-1.829c-0.712,0.111-1.245,0.736-1.224,1.474
				c0.023,0.8,0.692,1.429,1.493,1.405c0.487-0.014,0.91-0.267,1.161-0.645C208.92,296.072,208.442,295.956,208.09,295.556z"/>
		</g>
		<g>
			<path style="fill:#D1D3D4;" d="M216.425,294.426c0.024,0.801-0.607,1.469-1.405,1.493c-0.801,0.024-1.47-0.605-1.494-1.406
				c-0.024-0.799,0.606-1.468,1.407-1.492C215.732,292.997,216.401,293.627,216.425,294.426z"/>
			<path style="fill:#FFFFFF;" d="M215.225,294.522c0.285,0.246,0.617,0.301,0.897,0.18c0.061-0.142,0.094-0.301,0.089-0.465
				c-0.018-0.59-0.501-1.058-1.087-1.061C214.84,293.586,214.818,294.17,215.225,294.522z"/>
			<path style="fill:#BCBEC0;" d="M214.923,294.869c-0.469-0.528-0.498-1.259-0.174-1.83c-0.71,0.111-1.246,0.735-1.224,1.474
				c0.024,0.801,0.693,1.43,1.494,1.406c0.487-0.014,0.909-0.268,1.163-0.646C215.754,295.384,215.278,295.268,214.923,294.869z"/>
		</g>
		<g>
			<path style="fill:#D1D3D4;" d="M221.21,299.887c0.023,0.799-0.605,1.467-1.406,1.491c-0.8,0.024-1.469-0.606-1.493-1.405
				c-0.024-0.801,0.607-1.469,1.407-1.493C220.518,298.457,221.186,299.086,221.21,299.887z"/>
			<path style="fill:#FFFFFF;" d="M220.01,299.981c0.285,0.247,0.617,0.302,0.896,0.181c0.062-0.142,0.095-0.299,0.09-0.465
				c-0.018-0.591-0.501-1.058-1.088-1.06C219.625,299.045,219.602,299.63,220.01,299.981z"/>
			<path style="fill:#BCBEC0;" d="M219.708,300.329c-0.468-0.529-0.499-1.26-0.174-1.831c-0.711,0.111-1.246,0.736-1.224,1.476
				c0.024,0.799,0.693,1.429,1.493,1.405c0.487-0.015,0.909-0.268,1.162-0.645C220.538,300.845,220.061,300.728,219.708,300.329z"/>
		</g>
		<g>
			<path style="fill:#D1D3D4;" d="M222.214,308.351c0.024,0.8-0.606,1.467-1.406,1.491c-0.8,0.024-1.469-0.604-1.494-1.405
				c-0.023-0.8,0.607-1.469,1.408-1.493C221.522,306.92,222.19,307.551,222.214,308.351z"/>
			<path style="fill:#FFFFFF;" d="M221.015,308.444c0.285,0.246,0.617,0.301,0.895,0.182c0.063-0.142,0.095-0.3,0.09-0.464
				c-0.018-0.592-0.5-1.059-1.087-1.062C220.629,307.51,220.607,308.094,221.015,308.444z"/>
			<path style="fill:#BCBEC0;" d="M220.713,308.793c-0.469-0.53-0.5-1.26-0.174-1.83c-0.712,0.111-1.246,0.735-1.224,1.475
				c0.024,0.801,0.694,1.43,1.494,1.405c0.487-0.015,0.91-0.268,1.161-0.645C221.541,309.309,221.066,309.192,220.713,308.793z"/>
		</g>
		<g>
			<path style="fill:#D1D3D4;" d="M220.218,315.292c0.024,0.8-0.606,1.467-1.407,1.491c-0.8,0.024-1.469-0.605-1.493-1.405
				c-0.023-0.801,0.607-1.468,1.407-1.492C219.526,313.862,220.194,314.491,220.218,315.292z"/>
			<path style="fill:#FFFFFF;" d="M219.018,315.385c0.285,0.247,0.616,0.303,0.895,0.181c0.061-0.143,0.096-0.299,0.091-0.465
				c-0.018-0.591-0.501-1.058-1.087-1.06C218.633,314.451,218.61,315.035,219.018,315.385z"/>
			<path style="fill:#BCBEC0;" d="M218.716,315.733c-0.467-0.529-0.498-1.26-0.172-1.83c-0.712,0.112-1.247,0.736-1.226,1.475
				c0.024,0.801,0.693,1.43,1.493,1.405c0.488-0.015,0.91-0.267,1.162-0.644C219.547,316.25,219.069,316.133,218.716,315.733z"/>
		</g>
		<g>
			<path style="fill:#D1D3D4;" d="M216.78,321.982c0.024,0.8-0.606,1.468-1.405,1.492c-0.801,0.024-1.47-0.605-1.494-1.405
				c-0.023-0.8,0.607-1.469,1.407-1.493C216.088,320.552,216.757,321.182,216.78,321.982z"/>
			<path style="fill:#FFFFFF;" d="M215.581,322.077c0.285,0.246,0.616,0.302,0.896,0.181c0.062-0.143,0.095-0.301,0.09-0.464
				c-0.018-0.593-0.501-1.059-1.087-1.062C215.196,321.141,215.173,321.725,215.581,322.077z"/>
			<path style="fill:#BCBEC0;" d="M215.278,322.424c-0.467-0.529-0.499-1.259-0.173-1.83c-0.71,0.111-1.246,0.736-1.224,1.475
				c0.024,0.8,0.693,1.429,1.494,1.405c0.487-0.015,0.909-0.267,1.161-0.644C216.109,322.94,215.632,322.824,215.278,322.424z"/>
		</g>
		<g>
			<path style="fill:#D1D3D4;" d="M210.537,326.874c0.023,0.8-0.606,1.468-1.406,1.492c-0.8,0.024-1.469-0.605-1.493-1.405
				c-0.023-0.8,0.606-1.469,1.407-1.493C209.845,325.444,210.513,326.074,210.537,326.874z"/>
			<path style="fill:#FFFFFF;" d="M209.337,326.969c0.285,0.246,0.617,0.301,0.895,0.182c0.062-0.143,0.094-0.301,0.089-0.465
				c-0.018-0.591-0.499-1.059-1.086-1.062C208.951,326.032,208.93,326.618,209.337,326.969z"/>
			<path style="fill:#BCBEC0;" d="M209.035,327.316c-0.468-0.527-0.5-1.259-0.174-1.83c-0.711,0.112-1.245,0.737-1.224,1.475
				c0.024,0.8,0.693,1.43,1.493,1.405c0.487-0.014,0.909-0.268,1.161-0.645C209.865,327.832,209.388,327.715,209.035,327.316z"/>
		</g>
		<g>
			<path style="fill:#D1D3D4;" d="M204.04,327.552c0.023,0.8-0.606,1.469-1.407,1.493c-0.8,0.023-1.468-0.606-1.492-1.407
				c-0.024-0.8,0.606-1.469,1.406-1.492C203.347,326.123,204.016,326.752,204.04,327.552z"/>
			<path style="fill:#FFFFFF;" d="M202.84,327.647c0.285,0.247,0.617,0.302,0.896,0.183c0.063-0.144,0.094-0.302,0.089-0.465
				c-0.018-0.591-0.499-1.059-1.086-1.062C202.454,326.711,202.432,327.296,202.84,327.647z"/>
			<path style="fill:#BCBEC0;" d="M202.538,327.994c-0.468-0.528-0.5-1.258-0.174-1.83c-0.712,0.112-1.246,0.736-1.224,1.475
				c0.024,0.8,0.692,1.43,1.492,1.407c0.488-0.015,0.911-0.27,1.162-0.645C203.366,328.51,202.891,328.394,202.538,327.994z"/>
		</g>
		<g>
			<path style="fill:#D1D3D4;" d="M199.199,322.989c0.024,0.8-0.605,1.467-1.406,1.491c-0.8,0.023-1.468-0.604-1.492-1.405
				c-0.023-0.799,0.606-1.467,1.406-1.492C198.508,321.56,199.175,322.19,199.199,322.989z"/>
			<path style="fill:#FFFFFF;" d="M197.999,323.085c0.285,0.245,0.619,0.301,0.897,0.181c0.062-0.142,0.095-0.299,0.09-0.465
				c-0.018-0.592-0.501-1.058-1.088-1.061C197.615,322.148,197.592,322.733,197.999,323.085z"/>
			<path style="fill:#BCBEC0;" d="M197.697,323.431c-0.468-0.529-0.497-1.26-0.172-1.829c-0.712,0.111-1.246,0.735-1.224,1.473
				c0.024,0.801,0.692,1.429,1.492,1.405c0.487-0.015,0.91-0.267,1.162-0.644C198.527,323.948,198.051,323.832,197.697,323.431z"/>
		</g>
		<g>
			<path style="fill:#D1D3D4;" d="M197.725,315.162c0.024,0.801-0.607,1.468-1.407,1.492c-0.8,0.024-1.468-0.605-1.492-1.406
				c-0.024-0.8,0.606-1.468,1.406-1.492C197.032,313.732,197.701,314.362,197.725,315.162z"/>
			<path style="fill:#FFFFFF;" d="M196.524,315.257c0.287,0.245,0.619,0.301,0.898,0.18c0.062-0.142,0.094-0.3,0.088-0.465
				c-0.017-0.591-0.499-1.058-1.088-1.061C196.14,314.321,196.118,314.906,196.524,315.257z"/>
			<path style="fill:#BCBEC0;" d="M196.224,315.604c-0.469-0.528-0.499-1.26-0.174-1.831c-0.712,0.112-1.246,0.736-1.224,1.475
				c0.024,0.801,0.692,1.43,1.492,1.406c0.487-0.014,0.91-0.268,1.161-0.645C197.052,316.12,196.575,316.003,196.224,315.604z"/>
		</g>
		<g>
			<path style="fill:#D1D3D4;" d="M199.583,307.254c0.024,0.8-0.606,1.468-1.406,1.491c-0.8,0.024-1.468-0.604-1.491-1.405
				c-0.024-0.8,0.605-1.469,1.405-1.493C198.891,305.824,199.559,306.454,199.583,307.254z"/>
			<path style="fill:#FFFFFF;" d="M198.383,307.349c0.285,0.246,0.617,0.301,0.895,0.181c0.061-0.144,0.096-0.301,0.09-0.465
				c-0.017-0.592-0.501-1.058-1.087-1.061C197.999,306.414,197.977,306.998,198.383,307.349z"/>
			<path style="fill:#BCBEC0;" d="M198.081,307.695c-0.468-0.527-0.499-1.259-0.173-1.829c-0.711,0.111-1.244,0.737-1.222,1.475
				c0.023,0.8,0.691,1.429,1.491,1.405c0.487-0.014,0.909-0.268,1.161-0.643C198.911,308.212,198.434,308.097,198.081,307.695z"/>
		</g>
		<g>
			<path style="fill:#D1D3D4;" d="M203.357,300.097c0.024,0.801-0.607,1.469-1.406,1.493c-0.801,0.023-1.47-0.606-1.493-1.407
				c-0.024-0.799,0.606-1.468,1.407-1.492C202.664,298.668,203.333,299.298,203.357,300.097z"/>
			<path style="fill:#FFFFFF;" d="M202.157,300.192c0.286,0.246,0.617,0.302,0.898,0.182c0.06-0.143,0.094-0.3,0.088-0.465
				c-0.017-0.591-0.501-1.058-1.088-1.061C201.772,299.256,201.751,299.842,202.157,300.192z"/>
			<path style="fill:#BCBEC0;" d="M201.855,300.54c-0.468-0.53-0.5-1.261-0.174-1.831c-0.711,0.113-1.246,0.737-1.223,1.475
				c0.023,0.801,0.692,1.43,1.493,1.407c0.487-0.015,0.909-0.268,1.161-0.645C202.685,301.056,202.209,300.939,201.855,300.54z"/>
		</g>
		<path style="fill:#E6E7E8;" d="M214.537,312.951c-1.876,5.156-5.956,8.403-9.115,7.253c-3.16-1.148-4.2-6.259-2.325-11.414
			c1.874-5.155,5.957-8.402,9.114-7.254C215.37,302.686,216.411,307.797,214.537,312.951z"/>
	</g>
	<path style="fill:#0B0D10;" d="M318.313,241.914c0,0-9.638-32.482,22.039-52.219c0,0,27.383-17.938,32.201,18.497L318.313,241.914z
		"/>
	<path style="fill:#0B0D10;" d="M355.668,237.606c-6.686,16.916-16.461,20.691-27.567,16.302
		c-11.106-4.39-14.688-21.661-8.003-38.575c6.686-16.916,21.108-27.069,32.214-22.679
		C363.418,197.044,362.353,220.692,355.668,237.606z"/>
	<path style="fill:#373A3D;" d="M366.7,231.272c-6.723,16.901-21.167,27.023-32.263,22.61c-11.097-4.414-14.641-21.692-7.92-38.593
		c6.723-16.901,21.167-27.023,32.263-22.608C369.877,197.094,373.423,214.372,366.7,231.272z"/>
	<g>
		<path style="fill:#0B0D10;" d="M362.107,228.55c-4.431,12.182-14.507,19.701-22.506,16.792c-8-2.908-10.894-15.145-6.462-27.327
			c4.432-12.186,14.507-19.704,22.507-16.793C363.645,204.13,366.539,216.365,362.107,228.55z"/>
		<path style="fill:#D1D3D4;" d="M361.176,225.946c-3.917,10.77-12.825,17.415-19.896,14.845c-7.073-2.571-9.63-13.388-5.712-24.158
			c3.917-10.771,12.825-17.418,19.895-14.845C362.535,204.36,365.093,215.175,361.176,225.946z"/>
		<path style="fill:#D1D3D4;" d="M361.176,225.946c-3.917,10.77-12.825,17.415-19.896,14.845c-7.073-2.571-9.63-13.388-5.712-24.158
			c3.917-10.771,12.825-17.418,19.895-14.845C362.535,204.36,365.093,215.175,361.176,225.946z"/>
		<path style="fill:#808285;" d="M356.559,223.78c-2.62,7.204-8.323,11.74-12.734,10.136c-4.415-1.606-5.869-8.747-3.25-15.948
			c2.619-7.204,8.321-11.742,12.735-10.137C357.724,209.438,359.177,216.578,356.559,223.78z"/>
		<g>
			<path style="fill:#D1D3D4;" d="M349.341,205.116c0.023,0.8-0.607,1.468-1.406,1.492c-0.8,0.024-1.47-0.605-1.493-1.405
				c-0.025-0.8,0.606-1.469,1.407-1.492C348.647,203.686,349.317,204.316,349.341,205.116z"/>
			<path style="fill:#FFFFFF;" d="M348.141,205.211c0.284,0.246,0.617,0.301,0.895,0.181c0.063-0.143,0.094-0.301,0.09-0.465
				c-0.018-0.59-0.5-1.059-1.087-1.061C347.755,204.276,347.733,204.859,348.141,205.211z"/>
			<path style="fill:#BCBEC0;" d="M347.839,205.557c-0.468-0.528-0.5-1.259-0.174-1.829c-0.712,0.111-1.245,0.736-1.223,1.474
				c0.023,0.8,0.692,1.429,1.493,1.405c0.487-0.014,0.91-0.267,1.16-0.645C348.669,206.074,348.191,205.957,347.839,205.557z"/>
		</g>
		<g>
			<path style="fill:#D1D3D4;" d="M356.174,204.428c0.024,0.801-0.606,1.469-1.405,1.493c-0.801,0.024-1.47-0.605-1.494-1.406
				c-0.024-0.799,0.606-1.468,1.407-1.492C355.481,202.999,356.15,203.628,356.174,204.428z"/>
			<path style="fill:#FFFFFF;" d="M354.974,204.523c0.285,0.246,0.617,0.301,0.897,0.18c0.061-0.143,0.094-0.301,0.089-0.465
				c-0.017-0.591-0.501-1.058-1.087-1.062C354.589,203.587,354.567,204.172,354.974,204.523z"/>
			<path style="fill:#BCBEC0;" d="M354.672,204.87c-0.469-0.528-0.498-1.259-0.174-1.83c-0.71,0.111-1.246,0.735-1.224,1.474
				c0.024,0.801,0.693,1.43,1.494,1.406c0.486-0.014,0.909-0.268,1.163-0.645C355.503,205.386,355.026,205.269,354.672,204.87z"/>
		</g>
		<g>
			<path style="fill:#D1D3D4;" d="M360.959,209.889c0.023,0.799-0.606,1.467-1.406,1.491c-0.801,0.024-1.469-0.605-1.493-1.405
				c-0.024-0.801,0.606-1.469,1.407-1.493C360.267,208.458,360.935,209.088,360.959,209.889z"/>
			<path style="fill:#FFFFFF;" d="M359.759,209.983c0.285,0.246,0.617,0.302,0.896,0.18c0.062-0.142,0.095-0.299,0.09-0.465
				c-0.018-0.591-0.502-1.058-1.088-1.06C359.374,209.047,359.352,209.631,359.759,209.983z"/>
			<path style="fill:#BCBEC0;" d="M359.457,210.33c-0.468-0.529-0.499-1.26-0.173-1.83c-0.711,0.111-1.246,0.736-1.224,1.475
				c0.025,0.799,0.692,1.429,1.493,1.405c0.487-0.015,0.909-0.268,1.162-0.645C360.287,210.847,359.81,210.73,359.457,210.33z"/>
		</g>
		<g>
			<path style="fill:#D1D3D4;" d="M361.963,218.352c0.024,0.8-0.606,1.467-1.406,1.491c-0.8,0.024-1.469-0.604-1.494-1.405
				c-0.023-0.8,0.607-1.469,1.408-1.493C361.271,216.922,361.939,217.552,361.963,218.352z"/>
			<path style="fill:#FFFFFF;" d="M360.764,218.446c0.285,0.246,0.617,0.302,0.895,0.182c0.063-0.142,0.095-0.3,0.09-0.464
				c-0.018-0.592-0.5-1.059-1.087-1.062C360.378,217.512,360.356,218.096,360.764,218.446z"/>
			<path style="fill:#BCBEC0;" d="M360.462,218.794c-0.469-0.53-0.5-1.26-0.174-1.829c-0.712,0.111-1.246,0.735-1.224,1.474
				c0.024,0.801,0.694,1.43,1.494,1.405c0.487-0.015,0.91-0.268,1.161-0.645C361.29,219.311,360.815,219.194,360.462,218.794z"/>
		</g>
		<g>
			<path style="fill:#D1D3D4;" d="M359.967,225.293c0.024,0.8-0.606,1.467-1.406,1.491c-0.8,0.024-1.469-0.604-1.493-1.405
				c-0.024-0.801,0.607-1.469,1.407-1.493C359.275,223.863,359.943,224.492,359.967,225.293z"/>
			<path style="fill:#FFFFFF;" d="M358.767,225.387c0.285,0.248,0.617,0.303,0.895,0.181c0.061-0.143,0.096-0.299,0.091-0.465
				c-0.018-0.591-0.501-1.058-1.087-1.059C358.382,224.452,358.36,225.036,358.767,225.387z"/>
			<path style="fill:#BCBEC0;" d="M358.465,225.734c-0.467-0.529-0.498-1.26-0.172-1.83c-0.712,0.111-1.247,0.736-1.225,1.475
				c0.024,0.8,0.693,1.429,1.493,1.405c0.487-0.015,0.91-0.267,1.161-0.644C359.296,226.251,358.818,226.134,358.465,225.734z"/>
		</g>
		<g>
			<path style="fill:#D1D3D4;" d="M356.529,231.983c0.023,0.8-0.606,1.468-1.406,1.492c-0.8,0.024-1.469-0.605-1.494-1.405
				c-0.023-0.8,0.606-1.469,1.407-1.493C355.837,230.554,356.506,231.184,356.529,231.983z"/>
			<path style="fill:#FFFFFF;" d="M355.33,232.079c0.285,0.246,0.616,0.302,0.896,0.181c0.062-0.143,0.095-0.301,0.09-0.464
				c-0.018-0.592-0.501-1.059-1.088-1.062C354.945,231.143,354.922,231.727,355.33,232.079z"/>
			<path style="fill:#BCBEC0;" d="M355.028,232.425c-0.467-0.529-0.5-1.259-0.174-1.83c-0.71,0.111-1.246,0.736-1.224,1.475
				c0.024,0.8,0.693,1.429,1.494,1.405c0.487-0.015,0.909-0.267,1.162-0.644C355.858,232.942,355.381,232.825,355.028,232.425z"/>
		</g>
		<g>
			<path style="fill:#D1D3D4;" d="M350.286,236.876c0.023,0.8-0.606,1.468-1.406,1.492c-0.8,0.024-1.469-0.606-1.493-1.406
				c-0.023-0.8,0.606-1.469,1.407-1.493C349.594,235.445,350.262,236.076,350.286,236.876z"/>
			<path style="fill:#FFFFFF;" d="M349.086,236.97c0.285,0.246,0.617,0.302,0.896,0.182c0.062-0.143,0.094-0.301,0.088-0.465
				c-0.018-0.591-0.499-1.059-1.086-1.061C348.701,236.034,348.679,236.62,349.086,236.97z"/>
			<path style="fill:#BCBEC0;" d="M348.784,237.318c-0.468-0.528-0.499-1.259-0.174-1.831c-0.711,0.112-1.245,0.737-1.224,1.475
				c0.024,0.8,0.693,1.43,1.493,1.406c0.487-0.015,0.909-0.269,1.161-0.645C349.614,237.833,349.137,237.717,348.784,237.318z"/>
		</g>
		<g>
			<path style="fill:#D1D3D4;" d="M343.789,237.554c0.023,0.8-0.606,1.469-1.407,1.493c-0.8,0.023-1.468-0.607-1.492-1.407
				c-0.024-0.8,0.607-1.469,1.406-1.492C343.096,236.124,343.765,236.754,343.789,237.554z"/>
			<path style="fill:#FFFFFF;" d="M342.589,237.648c0.285,0.247,0.617,0.302,0.896,0.183c0.063-0.144,0.094-0.302,0.089-0.465
				c-0.018-0.591-0.499-1.059-1.086-1.062C342.203,236.713,342.181,237.297,342.589,237.648z"/>
			<path style="fill:#BCBEC0;" d="M342.287,237.996c-0.469-0.528-0.5-1.258-0.174-1.83c-0.712,0.112-1.246,0.736-1.224,1.475
				c0.024,0.8,0.692,1.43,1.492,1.407c0.488-0.015,0.91-0.27,1.162-0.645C343.115,238.512,342.64,238.395,342.287,237.996z"/>
		</g>
		<g>
			<path style="fill:#D1D3D4;" d="M338.948,232.991c0.024,0.8-0.605,1.467-1.406,1.491c-0.8,0.023-1.468-0.605-1.492-1.405
				c-0.023-0.799,0.605-1.467,1.406-1.492C338.257,231.561,338.924,232.191,338.948,232.991z"/>
			<path style="fill:#FFFFFF;" d="M337.747,233.086c0.285,0.246,0.619,0.301,0.897,0.181c0.061-0.142,0.094-0.299,0.089-0.465
				c-0.018-0.592-0.501-1.058-1.088-1.061C337.364,232.15,337.341,232.735,337.747,233.086z"/>
			<path style="fill:#BCBEC0;" d="M337.446,233.433c-0.468-0.529-0.498-1.259-0.172-1.829c-0.712,0.111-1.246,0.735-1.224,1.473
				c0.024,0.801,0.692,1.429,1.492,1.405c0.486-0.015,0.91-0.267,1.161-0.644C338.276,233.949,337.8,233.833,337.446,233.433z"/>
		</g>
		<g>
			<path style="fill:#D1D3D4;" d="M337.474,225.164c0.024,0.801-0.607,1.468-1.407,1.492c-0.8,0.024-1.468-0.605-1.492-1.406
				c-0.024-0.8,0.606-1.468,1.406-1.492C336.781,223.734,337.45,224.363,337.474,225.164z"/>
			<path style="fill:#FFFFFF;" d="M336.273,225.259c0.287,0.246,0.619,0.301,0.897,0.18c0.063-0.142,0.095-0.3,0.089-0.465
				c-0.017-0.591-0.499-1.058-1.089-1.061C335.889,224.323,335.867,224.908,336.273,225.259z"/>
			<path style="fill:#BCBEC0;" d="M335.973,225.605c-0.469-0.528-0.499-1.26-0.174-1.831c-0.713,0.112-1.246,0.736-1.224,1.475
				c0.024,0.801,0.692,1.43,1.492,1.406c0.487-0.014,0.91-0.268,1.161-0.645C336.801,226.122,336.324,226.005,335.973,225.605z"/>
		</g>
		<g>
			<path style="fill:#D1D3D4;" d="M339.332,217.255c0.024,0.801-0.606,1.468-1.406,1.491c-0.8,0.024-1.468-0.604-1.491-1.405
				c-0.024-0.8,0.604-1.469,1.405-1.493C338.64,215.825,339.309,216.455,339.332,217.255z"/>
			<path style="fill:#FFFFFF;" d="M338.132,217.35c0.285,0.246,0.617,0.302,0.896,0.181c0.061-0.144,0.095-0.3,0.089-0.465
				c-0.017-0.592-0.5-1.058-1.086-1.061C337.748,216.415,337.727,216.999,338.132,217.35z"/>
			<path style="fill:#BCBEC0;" d="M337.83,217.696c-0.468-0.527-0.499-1.259-0.173-1.829c-0.711,0.111-1.244,0.737-1.222,1.475
				c0.023,0.8,0.691,1.429,1.491,1.405c0.487-0.014,0.91-0.268,1.16-0.643C338.661,218.213,338.183,218.098,337.83,217.696z"/>
		</g>
		<g>
			<path style="fill:#D1D3D4;" d="M343.106,210.099c0.024,0.801-0.607,1.469-1.406,1.493c-0.801,0.024-1.47-0.606-1.494-1.407
				c-0.024-0.799,0.607-1.468,1.407-1.492C342.413,208.669,343.082,209.3,343.106,210.099z"/>
			<path style="fill:#FFFFFF;" d="M341.906,210.194c0.286,0.246,0.617,0.302,0.898,0.182c0.06-0.143,0.094-0.3,0.088-0.465
				c-0.017-0.591-0.501-1.058-1.088-1.062C341.522,209.258,341.501,209.844,341.906,210.194z"/>
			<path style="fill:#BCBEC0;" d="M341.604,210.542c-0.468-0.53-0.5-1.261-0.174-1.832c-0.711,0.113-1.245,0.737-1.224,1.475
				c0.024,0.801,0.693,1.431,1.494,1.407c0.487-0.015,0.91-0.269,1.16-0.645C342.434,211.057,341.958,210.941,341.604,210.542z"/>
		</g>
		<path style="fill:#E6E7E8;" d="M354.286,222.953c-1.875,5.156-5.956,8.403-9.115,7.253c-3.16-1.148-4.2-6.259-2.325-11.414
			c1.874-5.155,5.957-8.402,9.114-7.254C355.119,212.688,356.16,217.799,354.286,222.953z"/>
	</g>
	<polygon style="fill:#FFFFFF;" points="58.295,305.275 58.295,319.184 83.499,335.597 83.499,320.467 	"/>
	<g>
		<path style="fill:#E3482B;" d="M199.406,275.62c0,0,0.642-0.475,1.846-1.366c1.213-0.877,2.974-2.193,5.249-3.811
			c2.272-1.625,5.02-3.614,8.21-5.837c3.181-2.238,6.768-4.764,10.72-7.46c3.94-2.715,8.208-5.656,12.766-8.698
			c4.549-3.057,9.329-6.306,14.335-9.571c5.002-3.27,10.128-6.719,15.417-10.097c5.277-3.395,10.638-6.845,16-10.295
			c5.396-3.395,10.792-6.789,16.104-10.131c5.295-3.367,10.596-6.54,15.678-9.688c5.08-3.15,10.045-6.108,14.743-8.929
			c4.688-2.837,9.159-5.46,13.289-7.875c4.118-2.436,7.925-4.616,11.301-6.546c3.366-1.946,6.332-3.594,8.768-4.961
			c4.876-2.727,7.698-4.23,7.698-4.23s-2.557,1.919-7.094,5.18c-2.271,1.627-5.02,3.615-8.209,5.839
			c-3.18,2.24-6.769,4.764-10.719,7.462c-3.938,2.718-8.209,5.655-12.766,8.699c-4.546,3.061-9.33,6.304-14.336,9.57
			c-5.004,3.269-10.125,6.725-15.419,10.094c-5.278,3.394-10.64,6.844-16.001,10.292c-5.396,3.394-10.793,6.788-16.105,10.129
			c-5.301,3.358-10.597,6.539-15.68,9.684c-5.079,3.151-10.048,6.104-14.745,8.928c-4.687,2.839-9.16,5.458-13.288,7.876
			c-4.117,2.436-7.926,4.615-11.301,6.547c-3.365,1.948-6.331,3.595-8.766,4.963c-2.43,1.375-4.369,2.413-5.677,3.139
			C200.109,275.24,199.406,275.62,199.406,275.62z"/>
	</g>
	<g>
		<path style="fill:#E3482B;" d="M237.052,273.495c0,0,0.242-0.207,0.695-0.595c0.462-0.375,1.121-0.953,1.994-1.631
			c1.729-1.387,4.235-3.307,7.295-5.521c3.064-2.207,6.691-4.692,10.64-7.248c1.973-1.28,4.024-2.582,6.129-3.871
			c2.096-1.302,4.253-2.578,6.407-3.859c2.17-1.254,4.334-2.518,6.495-3.711c2.149-1.212,4.29-2.36,6.369-3.462
			c4.158-2.199,8.098-4.15,11.521-5.747c3.427-1.588,6.327-2.836,8.382-3.666c2.052-0.837,3.258-1.257,3.258-1.257
			s-0.956,0.847-2.688,2.229c-1.727,1.389-4.232,3.311-7.292,5.526c-3.063,2.208-6.69,4.693-10.64,7.248
			c-1.976,1.276-4.023,2.584-6.13,3.868c-2.096,1.303-4.255,2.575-6.41,3.856c-2.17,1.254-4.337,2.514-6.497,3.708
			c-2.152,1.207-4.289,2.362-6.37,3.458c-4.159,2.198-8.099,4.15-11.521,5.747c-3.427,1.589-6.325,2.838-8.38,3.67
			c-1.019,0.431-1.846,0.724-2.397,0.944C237.351,273.385,237.052,273.495,237.052,273.495z"/>
	</g>
	<path style="fill:none;stroke:#BCBEC0;stroke-miterlimit:10;" d="M352.218,160.799c0,0,22.056,11.278,20.334,47.393"/>
	<path style="fill:none;stroke:#BCBEC0;stroke-miterlimit:10;" d="M204.993,254.744c0,0-4.835,2.816,0,7.562
		c0,0,27.81-0.25,29.561,27.589"/>
	<line style="fill:none;stroke:#BCBEC0;stroke-miterlimit:10;" x1="234.554" y1="289.896" x2="316.731" y2="237.213"/>
	<path style="fill:#C8161D;" d="M209.703,244.364c-3.995,1.634-6.107,1.4-6.107,1.4c-4.117,5.932,1.363,10.251,1.363,10.251
		c3.714-1.883,6.994-0.084,6.994-0.084c6.985,5.508,17.59-1.035,17.59-1.035c10.943-5.266,6.963-15.025,6.963-15.025
		c-1.343-6.127-6.647-6.053-6.647-6.053c-7.809-0.376-15.135,4.445-15.135,4.445S209.977,240.688,209.703,244.364z"/>
	<g>
		<path style="fill:#FFFFFF;" d="M136.318,153.491c0,0,0.232,0.309,0.689,0.855c0.44,0.552,1.148,1.326,2.039,2.291
			c0.456,0.473,0.961,0.997,1.511,1.566c0.585,0.539,1.184,1.146,1.836,1.779c0.634,0.647,1.403,1.256,2.157,1.938
			c0.377,0.34,0.764,0.689,1.161,1.046c0.398,0.355,0.834,0.69,1.263,1.047c0.865,0.702,1.765,1.434,2.696,2.191
			c0.962,0.719,1.956,1.462,2.977,2.227c0.999,0.785,2.083,1.523,3.192,2.272c1.115,0.741,2.204,1.559,3.368,2.314
			c1.177,0.738,2.373,1.489,3.584,2.249c0.602,0.382,1.209,0.767,1.818,1.154c0.628,0.359,1.258,0.721,1.892,1.083
			c2.539,1.439,5.063,2.988,7.738,4.29c1.313,0.695,2.624,1.391,3.931,2.083c1.317,0.673,2.667,1.277,3.984,1.917
			c1.325,0.625,2.634,1.258,3.923,1.896c1.275,0.669,2.62,1.146,3.889,1.737c2.576,1.094,5.019,2.284,7.402,3.259
			c2.393,0.95,4.643,1.9,6.724,2.784c1.043,0.437,2.043,0.856,2.994,1.254c0.961,0.374,1.873,0.728,2.731,1.061
			c1.72,0.653,3.208,1.28,4.439,1.785c2.459,1.018,3.855,1.666,3.855,1.666s-1.515-0.168-4.152-0.579
			c-1.317-0.209-2.923-0.45-4.751-0.792c-0.917-0.164-1.894-0.339-2.922-0.523c-1.026-0.198-2.076-0.507-3.189-0.775
			c-2.221-0.556-4.631-1.165-7.166-1.865c-2.529-0.72-5.132-1.684-7.85-2.618c-2.733-0.896-5.461-2.085-8.23-3.301
			c-1.378-0.621-2.801-1.174-4.167-1.87c-1.362-0.703-2.73-1.409-4.098-2.115l-2.039-1.082c-0.684-0.349-1.355-0.725-2.007-1.134
			c-1.309-0.804-2.613-1.605-3.906-2.4c-0.645-0.401-1.286-0.8-1.924-1.198c-0.614-0.438-1.225-0.874-1.832-1.307
			c-1.208-0.872-2.401-1.732-3.575-2.579c-1.146-0.885-2.237-1.808-3.307-2.702c-1.067-0.897-2.127-1.751-3.066-2.701
			c-0.956-0.922-1.885-1.819-2.784-2.687c-0.855-0.914-1.656-1.824-2.435-2.68c-0.787-0.846-1.503-1.697-2.142-2.542
			c-0.636-0.847-1.283-1.602-1.805-2.392c-0.533-0.778-1.042-1.492-1.483-2.174c-0.428-0.693-0.797-1.346-1.14-1.923
			c-0.353-0.569-0.614-1.118-0.845-1.586c-0.234-0.466-0.429-0.864-0.567-1.2C136.436,153.854,136.318,153.491,136.318,153.491z"/>
	</g>
	<g>
		<path style="fill:#FFFFFF;" d="M260.589,181.408c0,0,0.064,0.362,0.248,0.967c0.171,0.606,0.476,1.459,0.978,2.392
			c0.221,0.482,0.571,0.939,0.887,1.444c0.393,0.452,0.764,0.958,1.265,1.366c0.439,0.477,1.044,0.773,1.584,1.167
			c0.299,0.152,0.614,0.28,0.922,0.424l0.464,0.212c0.162,0.056,0.333,0.089,0.497,0.135l0.993,0.278
			c0.328,0.102,0.683,0.094,1.02,0.146c0.341,0.036,0.678,0.078,1.012,0.126c0.337,0.027,0.674-0.001,1.004,0.003
			c0.66-0.034,1.306,0.045,1.912-0.066c0.608-0.077,1.187-0.135,1.723-0.188c0.54-0.034,1.018-0.172,1.455-0.237
			c0.435-0.081,0.813-0.151,1.125-0.208c0.627-0.112,0.993-0.162,0.993-0.162s-0.334,0.145-0.931,0.373
			c-0.3,0.112-0.665,0.249-1.083,0.406c-0.422,0.144-0.885,0.371-1.43,0.466c-0.537,0.127-1.123,0.262-1.746,0.39
			c-0.617,0.171-1.3,0.163-1.996,0.225c-0.351,0.016-0.705,0.064-1.067,0.054c-0.362-0.025-0.73-0.056-1.1-0.093
			c-0.369-0.05-0.748-0.038-1.115-0.142l-1.107-0.289c-0.183-0.055-0.37-0.097-0.549-0.163l-0.521-0.246
			c-0.344-0.167-0.695-0.32-1.027-0.499c-0.616-0.443-1.252-0.845-1.725-1.395c-0.54-0.483-0.898-1.085-1.275-1.614
			c-0.304-0.576-0.608-1.109-0.777-1.648c-0.218-0.518-0.32-1.024-0.426-1.462c-0.078-0.446-0.151-0.83-0.176-1.152
			c-0.038-0.319-0.038-0.574-0.037-0.746C260.581,181.499,260.589,181.408,260.589,181.408z"/>
	</g>
</g>
</svg>
